<svg xmlns="http://www.w3.org/2000/svg" xmlns:xlink="http://www.w3.org/1999/xlink" viewBox="0 0 564.93 153.77"><defs><style>.cls-1{fill:url(#linear-gradient);}.cls-2{opacity:0.33;}.cls-3{fill:#231f20;}.cls-4{fill:#a43022;}.cls-5{fill:#f05123;}.cls-6{fill:#010101;}.cls-7{fill:#fff;}.cls-8{font-size:98px;fill:#f15a29;stroke:#000;stroke-miterlimit:10;font-family:RacingSansOne-Regular, Racing Sans One;letter-spacing:-0.05em;}.cls-9{letter-spacing:-0.06em;}.cls-10{letter-spacing:-0.05em;}.cls-11{letter-spacing:-0.04em;}</style><linearGradient id="linear-gradient" x1="26.68" y1="114.3" x2="49.41" y2="49.25" gradientUnits="userSpaceOnUse"><stop offset="0" stop-color="#f15a29"/><stop offset="0.6" stop-color="#f79038"/><stop offset="1" stop-color="#fbb040"/></linearGradient></defs><g id="Layer_2" data-name="Layer 2"><g id="Layer_1-2" data-name="Layer 1"><path class="cls-1" d="M43.45,22.5a43.49,43.49,0,0,0-41.31,57c7.14,27.29,35,65.76,41.27,74.31,6.27-8.54,34.16-47,41.34-74.26a43.5,43.5,0,0,0-41.3-57Zm0,60.08A16.11,16.11,0,1,1,59.56,66.47,16.12,16.12,0,0,1,43.45,82.58Z"/><g id="Layer-1" class="cls-2"><path class="cls-3" d="M57.77,29A102.92,102.92,0,0,0,41.65,24l.06-.16c-4.44-.81-7.49-.74-8,.48a1.15,1.15,0,0,0,0,.64l-.6.29s-.44.13-.06.92,1.85,2,2.86,3.55a5.08,5.08,0,0,0,1.62,1.54c.08,0,.25-.19-.52-1.76-.33-.81-1.41-1.51-1.58-2.25a30,30,0,0,0,3.86,2.8h0a104.29,104.29,0,0,0,15.23,7.23,95.35,95.35,0,0,0,17.93,5.27l2.1-5.4A95.33,95.33,0,0,0,57.77,29"/><path class="cls-3" d="M80,43.93l-1-2,0-.1c.38-1-1-2.59-3.63-4.46l-2.06,5.29a16.13,16.13,0,0,0,3.7.13,9.49,9.49,0,0,1-2,1.27c-1.48.73-2.36.85-2.33.92a5.25,5.25,0,0,0,2.14-.27c1.62-.56,3.33-.56,4-.88s.55-.75.55-.75"/><path class="cls-3" d="M36.5,20.67a4,4,0,0,0-.46.24l.46-.24c-.28-.08-.82,2.1-1,2.21s-1,.84-.9,1l-.48-.18s-.62.12-.64.14l-5.2.91s-.23.47.45,1.58,3.26,3.78,5.06,6a9.2,9.2,0,0,0,1.3,1.73c.13,0,0-1.47-1.33-3.67-1-1.88-2.13-4.62-1.59-4.68A5.21,5.21,0,0,1,34,25.69s0,0,0,0,21.22,14.22,43.7,16.18c2.4.65,1.18,2,1.18,2,.42.35-1.06,2.07-2.62,3-2,1-2.67,2.13-2.56,2.22a6.61,6.61,0,0,0,1.75-.66c2.37-.78,4.83-3,5.72-3.43"/><path class="cls-3" d="M61.86,40.66l.15,0-7-3.16c7.6-2.31,10.82,3.19,11.16,3.79l-.36.93Z"/><path class="cls-3" d="M34.61,26.12,36.42,25"/><path class="cls-3" d="M61.05,32.4a4.48,4.48,0,0,1,4.35,1.69s1,2.56-1.1,2.84c0,0-3.31.24-4.35-1.69,0,0-1.46-1.77,1.1-2.84"/><path class="cls-3" d="M63.37,33.91a1.34,1.34,0,1,1-.84-1.48,1.22,1.22,0,0,1,.84,1.48"/><path class="cls-3" d="M51.49,28.24s4.11.47,4.28,3.06c0,0,.07,3-4.12,1.51,0,0-5-2.65-.16-4.57"/><path class="cls-3" d="M53,29.92a1.38,1.38,0,0,1-2.52-1,1.26,1.26,0,0,1,1.67-.54A1.24,1.24,0,0,1,53,29.92"/><path class="cls-3" d="M74.53,40.41S73,42,67.43,42L66,41.67s-2.55-6.48-10.87-3.52c0,0,2.21.08,7.09,2.92,0,0-3.24,1.26-8-.68,0,0,3.34,5.09,12.23,3.06,0,0,8.1,1.17,10.13-2.26Z"/></g><g id="Layer-1-2" data-name="Layer-1"><path class="cls-4" d="M60.93,20.75A63.31,63.31,0,0,0,44.5,16.58l.11-.27c-4.65-.27-8,.55-8.79,2.59a2.93,2.93,0,0,0-.17,1l-.72.59s-.51.31-.27,1.48,1.61,5.28,2.36,7.51a7.82,7.82,0,0,0,.52,1.76,10.58,10.58,0,0,0-.18-4.17A34.16,34.16,0,0,1,37,23.17a20.94,20.94,0,0,0,3.56,3.57h0a62.43,62.43,0,0,0,14.94,8C62.44,37.44,69,38.9,73.81,39L77.33,30c-3.6-3.14-9.46-6.51-16.4-9.21"/><path class="cls-4" d="M81.26,38.33l-.14-1.75a1.22,1.22,0,0,0,.07-.17c.65-1.67-.49-3.88-2.93-6.25L74.81,39a12.73,12.73,0,0,0,4-.64,32.12,32.12,0,0,1-3.28,3.52A12.14,12.14,0,0,0,72.74,45a7.78,7.78,0,0,0,1.45-1c1.9-1.27,5.5-3.69,6.3-4.36s.77-1.31.77-1.31"/><path class="cls-5" d="M85.39,39.92l-3.33-5.26c0-.17,0-.34,0-.51l2.4-1.63a.89.89,0,0,0,.39-.74.82.82,0,0,0-.4-.71l-2.43-1.45c0-.25,0-.49-.07-.73l2.06-2.08a.88.88,0,0,0,.24-.8.84.84,0,0,0-.53-.62l-2.67-.93-.21-.68,1.64-2.45a.88.88,0,0,0,.09-.83A.78.78,0,0,0,82,20l-2.81-.37c-.11-.21-.22-.42-.34-.63L80,16.3a.87.87,0,0,0-.07-.83.8.8,0,0,0-.72-.36l-2.84.21c-.15-.18-.3-.37-.46-.55l.63-2.87a.87.87,0,0,0-.22-.8.82.82,0,0,0-.79-.2l-2.75.78c-.18-.16-.37-.3-.56-.45l.08-2.93a.83.83,0,0,0-.38-.73.79.79,0,0,0-.8,0L68.52,8.85l-.63-.32-.48-2.88a.82.82,0,0,0-1.31-.51l-2.29,1.8-.68-.19-1-2.7a.8.8,0,0,0-.62-.52.83.83,0,0,0-.77.28L58.8,6l-.71,0L56.58,3.55a.81.81,0,0,0-.71-.38.86.86,0,0,0-.71.43L53.69,6.14l-.71.1L51,4.18A.77.77,0,0,0,50.25,4a.88.88,0,0,0-.61.56l-1,2.79L48,7.53,45.67,5.91a.81.81,0,0,0-.81-.07.89.89,0,0,0-.5.67l-.43,2.91c-.21.12-.42.24-.62.37l-2.6-1.12a.82.82,0,0,0-.81.1.89.89,0,0,0-.36.76l.12,2.92-.55.48-2.77-.56a.81.81,0,0,0-.77.25.87.87,0,0,0-.22.81L36,16.26l-.08.1-6.13,2.93s-.87.26-.38,1.86c.44,1.41,3.16,7.4,4.6,10.55a9.89,9.89,0,0,0,1,2.45c.15,0,.37-2.35-.61-5.53-.64-2.76-1.26-6.87-.66-7.08a4.61,4.61,0,0,1,2-.52s0-.05,0,0,17.88,18.5,41.91,16.47a4.92,4.92,0,0,1,3.39,2.26c.37.47-2.22,3.43-4.13,5.32-2.4,2.06-3.39,4-3.3,4.12a9.8,9.8,0,0,0,2.06-1.45c2.76-1.8,8-5.23,9-6.14,1.21-1,.65-1.68.65-1.68"/><path class="cls-6" d="M62.7,38.43l.17-.06L56,34.93c8.8-5.41,11,2.59,11.28,3.47L66.67,40Z"/><path class="cls-5" d="M38.59,19.33s-5-4.57-5-7.42c0,0,9-2.81,3-11.85L33.49,7.4A9.78,9.78,0,0,1,33.67,0S24.64.71,31,10.65c0,0-1.05,3.59,5.33,10.9Z"/><path class="cls-6" d="M63.71,25.48s3.1-1.54,4.35,1.69c0,0,.48,3.84-1.85,4.76,0,0-3.66,1.14-4.35-1.69,0,0-1.19-2.47,1.85-4.76"/><path class="cls-7" d="M65.89,27.34c-.36.93-1.2,1.47-1.88,1.2a1.6,1.6,0,0,1-.56-2.15c.36-.93,1.19-1.47,1.87-1.21a1.63,1.63,0,0,1,.57,2.16"/><path class="cls-6" d="M54.25,21.05s4.38-.2,4,3.88c0,0-.6,4.72-4.83,3.36,0,0-4.87-3.07.87-7.24"/><path class="cls-7" d="M55.51,23.38c-.37.95-1.24,1.51-1.94,1.24A1.67,1.67,0,0,1,53,22.4c.37-1,1.23-1.52,1.93-1.25a1.67,1.67,0,0,1,.59,2.23"/><path class="cls-5" d="M76.56,35.12s-2,2.8-8.1,4.18L67,39.09S65.69,29.36,56,36c0,0,2.38-.38,7,3a9.32,9.32,0,0,1-8.6.75S56.87,47.09,67,41.81c0,0,8.55,0,11.55-5.91Z"/></g><text class="cls-8" transform="translate(98.75 109.81)">R<tspan class="cls-9" x="56.74" y="0">o</tspan><tspan class="cls-10" x="107.51" y="0">v</tspan><tspan class="cls-11" x="153.57" y="0">erland</tspan></text></g></g></svg>