<?xml version="1.0" standalone="no"?>
<!DOCTYPE svg PUBLIC "-//W3C//DTD SVG 20010904//EN"
 "http://www.w3.org/TR/2001/REC-SVG-20010904/DTD/svg10.dtd">
<svg version="1.0" xmlns="http://www.w3.org/2000/svg"
 width="1222.000000pt" height="1222.000000pt" viewBox="0 0 1222.000000 1222.000000"
 preserveAspectRatio="xMidYMid meet">
<metadata>
Created by potrace 1.14, written by Peter Selinger 2001-2017
</metadata>
<g transform="translate(0.000000,1222.000000) scale(0.100000,-0.100000)"
fill="#000000" stroke="none">
<path d="M5227 12189 c-308 -99 -363 -367 -151 -734 41 -71 47 -88 49 -151 3
-75 15 -127 45 -211 23 -61 81 -179 117 -236 13 -21 23 -40 21 -41 -7 -6 -218
-106 -223 -106 -3 0 -23 -11 -45 -25 -69 -43 -66 -100 16 -291 47 -112 47
-125 0 -127 -14 -1 -26 -5 -26 -9 0 -5 -6 -8 -13 -8 -17 0 -276 -106 -382
-155 -468 -221 -909 -574 -1231 -986 -97 -123 -244 -339 -244 -356 0 -7 -4
-13 -9 -13 -5 0 -11 -8 -14 -17 -4 -10 -18 -37 -32 -61 -108 -182 -228 -468
-300 -712 -42 -145 -37 -121 -69 -280 -26 -132 -32 -164 -42 -245 -3 -27 -8
-61 -10 -75 -7 -45 -18 -283 -18 -380 1 -107 12 -335 18 -365 2 -11 7 -47 11
-80 33 -297 198 -881 390 -1385 144 -377 407 -948 633 -1375 38 -71 93 -175
122 -230 63 -119 242 -438 342 -609 39 -66 83 -141 97 -166 30 -53 287 -475
364 -598 179 -286 265 -419 493 -762 137 -208 400 -594 507 -745 149 -210 372
-521 382 -532 5 -6 28 -37 49 -67 22 -31 40 -55 41 -53 54 67 674 943 741
1047 16 25 31 47 35 50 14 13 506 763 646 986 7 10 33 53 59 94 26 41 57 91
69 110 77 122 275 449 275 455 0 3 5 11 10 18 11 12 134 222 192 325 17 31 40
73 51 92 72 126 217 390 291 530 113 213 378 748 391 790 1 3 15 34 32 70 131
280 364 876 409 1050 2 8 24 83 48 165 25 83 56 189 70 237 25 82 70 278 82
355 3 19 7 43 9 52 2 9 6 44 10 76 4 33 9 67 10 76 26 141 25 644 0 805 -3 16
-7 43 -10 59 -3 17 -7 50 -10 75 -10 85 -44 235 -99 440 -42 154 -141 398
-238 589 -43 85 -75 157 -71 161 4 4 53 38 108 75 174 118 219 159 229 207 6
32 -21 81 -211 374 -77 120 -77 121 21 187 45 31 89 59 98 62 8 3 24 21 34 40
28 52 11 73 -110 147 -139 83 -140 87 -16 210 71 70 90 96 90 118 0 40 -27 66
-90 85 -206 65 -207 68 -110 212 73 109 85 147 54 177 -20 20 -25 21 -202 43
-41 4 -57 11 -69 30 -17 26 -12 46 53 188 28 61 30 72 21 108 -6 21 -16 29
-40 34 -17 4 -34 7 -37 6 -3 -1 -52 -4 -110 -8 l-105 -7 -16 29 c-11 18 -14
35 -9 49 5 12 11 36 14 55 3 19 12 59 19 89 17 71 6 117 -29 126 -16 4 -68 -5
-138 -25 -130 -36 -128 -36 -149 -13 -13 14 -15 39 -13 146 3 115 2 130 -15
147 -30 30 -66 22 -177 -35 -90 -47 -106 -52 -128 -42 -26 12 -29 18 -40 91
-4 28 -8 52 -9 55 -1 3 -5 29 -9 58 -9 58 -35 92 -72 92 -19 0 -126 -75 -193
-136 -17 -16 -30 -20 -49 -15 -31 9 -32 11 -83 142 -57 150 -91 161 -181 56
-103 -120 -123 -138 -149 -129 -14 5 -48 48 -84 106 -67 106 -77 116 -116 116
-33 0 -43 -12 -115 -135 -78 -132 -84 -133 -184 -28 -86 91 -115 112 -140 106
-33 -9 -52 -40 -91 -154 -22 -62 -40 -114 -42 -115 -1 -1 -13 -5 -27 -9 -21
-5 -44 7 -120 61 -101 71 -135 81 -169 50 -12 -11 -23 -38 -27 -65 -4 -25 -8
-53 -9 -61 -4 -25 -19 -124 -19 -133 -1 -5 -12 -15 -27 -24 -24 -14 -31 -13
-133 31 -59 25 -116 46 -126 46 -10 0 -28 -9 -41 -19 -23 -18 -24 -23 -21
-147 1 -70 5 -130 7 -132 2 -3 -7 -13 -21 -24 -24 -20 -25 -20 -133 2 -135 27
-161 25 -180 -14 -12 -26 -12 -39 4 -105 24 -98 22 -89 30 -141 l7 -45 -22 25
c-69 82 -153 236 -164 300 -6 34 -5 36 42 54 55 23 164 92 207 133 66 63 129
172 143 246 11 58 5 181 -12 245 -18 71 -68 183 -113 256 l-30 48 -93 -218
c-51 -121 -106 -252 -123 -292 l-31 -73 -13 36 c-21 60 -35 155 -35 235 0 82
5 116 28 200 8 30 17 63 19 73 2 9 7 22 10 27 9 15 -47 9 -108 -11z m188
-1705 c3 -21 9 -55 15 -74 14 -48 15 -46 -34 -59 -62 -15 -61 -17 -64 40 -5
77 4 104 41 121 18 9 33 15 34 14 2 -1 5 -20 8 -42z m3474 -1363 c-13 -16 -29
-30 -36 -30 -11 -1 -39 38 -31 43 6 5 83 22 87 20 2 -2 -7 -16 -20 -33z m210
-58 c11 -21 -5 -56 -61 -132 l-40 -53 -29 43 c-16 24 -28 47 -26 51 3 9 130
107 139 107 4 1 11 -7 17 -16z m-2774 -867 c111 -21 194 -45 285 -84 360 -153
626 -452 734 -825 26 -89 31 -117 44 -242 10 -95 3 -281 -12 -325 -3 -8 -7
-31 -10 -50 -15 -107 -97 -304 -179 -430 -54 -83 -66 -98 -161 -197 -201 -209
-493 -351 -781 -379 -300 -29 -600 48 -852 218 -101 68 -265 233 -328 328
-151 229 -221 457 -223 720 -1 217 46 412 143 595 67 128 127 208 236 316 144
143 317 250 499 308 68 22 74 24 180 45 83 17 334 18 425 2z"/>
<path d="M4920 10240 c-8 -5 -10 -10 -5 -10 6 0 17 5 25 10 8 5 11 10 5 10 -5
0 -17 -5 -25 -10z"/>
</g>
</svg>
